<svg id="visual" viewBox="0 0 900 600" width="900" height="600" xmlns="http://www.w3.org/2000/svg" xmlns:xlink="http://www.w3.org/1999/xlink" version="1.1"><rect x="0" y="0" width="900" height="600" fill="#001220"></rect><defs><linearGradient id="grad1_0" x1="33.3%" y1="100%" x2="100%" y2="0%"><stop offset="20%" stop-color="#001220" stop-opacity="1"></stop><stop offset="80%" stop-color="#001220" stop-opacity="1"></stop></linearGradient></defs><defs><linearGradient id="grad2_0" x1="0%" y1="100%" x2="66.7%" y2="0%"><stop offset="20%" stop-color="#001220" stop-opacity="1"></stop><stop offset="80%" stop-color="#001220" stop-opacity="1"></stop></linearGradient></defs><g transform="translate(900, 600)"><path d="M-324.5 0C-313.7 -55.1 -302.8 -110.1 -277.1 -160C-251.4 -209.9 -210.9 -254.5 -162.2 -281C-113.6 -307.6 -56.8 -316 0 -324.5L0 0Z" fill="#FBAE3C"></path></g><g transform="translate(0, 0)"><path d="M324.5 0C316.8 58.1 309 116.1 281 162.2C253 208.4 204.7 242.6 154.5 267.6C104.3 292.7 52.1 308.6 0 324.5L0 0Z" fill="#FBAE3C"></path></g></svg>